# xmcd
#
# Track frame offsets:
#	150
#	12205
#	22708
#	34569
#	52284
#	64596
#	74358
#	88026
#	101696
#
# Disc length: 1694 seconds
#
# Revision: 1
# Processed by: cddbd v1.5.2PL0 Copyright (c) Steve Scherf et al.
# Submitted via: audiograbber 1.83.01
#
DISCID=6c069c09
DTITLE=Dollhouse - Rock and Roll Revival
DYEAR=1900
DGENRE=rock and soul
TTITLE0=Free Your Soul To The Music
TTITLE1=Hold On Together
TTITLE2=Oh My Love
TTITLE3=Sittin' In This Room
TTITLE4=Gotta Move On
TTITLE5=Let It Shine
TTITLE6=Last Night
TTITLE7=Still Got Soul
TTITLE8=I'm Not Crossin' Over
EXTD=
EXTT0=
EXTT1=
EXTT2=
EXTT3=
EXTT4=
EXTT5=
EXTT6=
EXTT7=
EXTT8=
PLAYORDER=
